<svg width="900" height="620" viewBox="0 0 900 620" fill="none" xmlns="http://www.w3.org/2000/svg">
  <rect width="900" height="620" rx="36" fill="#020617"/>
  <rect x="30" y="30" width="840" height="560" rx="30" fill="url(#paint0_linear)"/>
  <circle cx="690" cy="180" r="120" fill="#F59E0B" fill-opacity="0.18"/>
  <circle cx="220" cy="450" r="150" fill="#22D3EE" fill-opacity="0.12"/>
  <rect x="105" y="120" width="310" height="330" rx="28" fill="#0F172A" stroke="#334155" stroke-width="2"/>
  <rect x="470" y="90" width="320" height="180" rx="26" fill="#111827" stroke="#475569" stroke-width="2"/>
  <rect x="470" y="300" width="250" height="180" rx="26" fill="#111827" stroke="#475569" stroke-width="2"/>
  <path d="M192 326C192 269.667 237.667 224 294 224C350.333 224 396 269.667 396 326V392H192V326Z" fill="#F59E0B"/>
  <circle cx="294" cy="191" r="58" fill="#FDBA74"/>
  <rect x="526" y="130" width="210" height="18" rx="9" fill="#F59E0B"/>
  <rect x="526" y="168" width="160" height="14" rx="7" fill="#CBD5E1"/>
  <rect x="526" y="198" width="190" height="14" rx="7" fill="#64748B"/>
  <rect x="518" y="336" width="154" height="14" rx="7" fill="#22D3EE"/>
  <rect x="518" y="366" width="120" height="14" rx="7" fill="#CBD5E1"/>
  <rect x="518" y="396" width="170" height="14" rx="7" fill="#64748B"/>
  <path d="M694 409L741 456L815 366" stroke="#4ADE80" stroke-width="18" stroke-linecap="round" stroke-linejoin="round"/>
  <defs>
    <linearGradient id="paint0_linear" x1="30" y1="30" x2="870" y2="590" gradientUnits="userSpaceOnUse">
      <stop stop-color="#0F172A"/>
      <stop offset="1" stop-color="#111827"/>
    </linearGradient>
  </defs>
</svg>
